<svg width="32" height="32" viewBox="0 0 32 32" fill="none" xmlns="http://www.w3.org/2000/svg">
  <path d="M22.1157 14.772H18.2288L20.372 11.4533C20.4026 11.4053 20.4134 11.3472 20.402 11.2914C20.3907 11.2355 20.3581 11.1863 20.3111 11.154L18.6638 10.0464C18.5654 9.97869 18.4217 10.0076 18.3577 10.1097L15.9981 13.7647L13.6384 10.1097C13.6061 10.0606 13.5561 10.026 13.4988 10.0132C13.4397 10.0023 13.3808 10.0132 13.3327 10.0463L11.6854 11.1539C11.6384 11.1861 11.6058 11.2354 11.5943 11.2912C11.5828 11.3471 11.5935 11.4052 11.624 11.4533L13.7674 14.7719H9.88073C9.82284 14.7721 9.76735 14.7951 9.72638 14.836C9.68542 14.877 9.66231 14.9324 9.66211 14.9903V17.005C9.66233 17.0629 9.68545 17.1184 9.72641 17.1593C9.76737 17.2002 9.82285 17.2232 9.88073 17.2233H13.7674L11.6241 20.5419C11.5935 20.5901 11.5829 20.6482 11.5943 20.704C11.6058 20.7598 11.6384 20.8091 11.6854 20.8413L13.3327 21.9489C13.3808 21.982 13.4397 21.9927 13.4988 21.982C13.5561 21.9692 13.6061 21.9346 13.6384 21.8856L15.9981 18.2307L18.3577 21.8857C18.3777 21.9163 18.4049 21.9414 18.437 21.959C18.469 21.9766 18.5049 21.986 18.5414 21.9864C18.5849 21.986 18.6275 21.9731 18.6638 21.949L20.3111 20.8414C20.3581 20.8091 20.3907 20.7598 20.402 20.704C20.4134 20.6482 20.4026 20.5901 20.372 20.542L18.2287 17.2233H22.1157C22.1736 17.2231 22.229 17.2001 22.27 17.1592C22.3109 17.1182 22.3339 17.0628 22.3341 17.0049V14.9903C22.3339 14.9325 22.3109 14.877 22.27 14.8361C22.229 14.7952 22.1736 14.7722 22.1157 14.772Z" fill="currentColor"/>
</svg>
