<svg width="172" height="172" viewBox="0 0 172 172" fill="none" xmlns="http://www.w3.org/2000/svg">
  <path d="M118.868 79.3998H97.9757L109.496 61.5618C109.66 61.3035 109.718 60.9913 109.657 60.6912C109.596 60.391 109.421 60.1263 109.168 59.9528L100.314 53.9993C99.7851 53.6356 99.0127 53.7911 98.6687 54.3397L85.9857 73.9853L73.3022 54.3397C73.1289 54.076 72.8598 53.8901 72.5518 53.8214C72.2344 53.7627 71.9175 53.8214 71.6592 53.9989L62.8051 59.9524C62.5524 60.1257 62.3768 60.3903 62.3152 60.6904C62.2536 60.9906 62.3108 61.303 62.4749 61.5618L73.9957 79.3994H53.1048C52.7936 79.4001 52.4953 79.5239 52.2752 79.7439C52.055 79.9638 51.9308 80.2619 51.9297 80.5731V91.4022C51.9309 91.7133 52.0551 92.0113 52.2753 92.2312C52.4955 92.451 52.7937 92.5748 53.1048 92.5755H73.9957L62.4753 110.413C62.3112 110.672 62.2538 110.984 62.3153 111.284C62.3768 111.584 62.5524 111.849 62.8051 112.022L71.6592 117.976C71.9175 118.153 72.2344 118.211 72.5518 118.153C72.8598 118.085 73.1289 117.899 73.3022 117.635L85.9857 97.9901L98.6687 117.636C98.7761 117.8 98.9224 117.935 99.0945 118.03C99.2667 118.124 99.4595 118.175 99.6558 118.177C99.8899 118.175 100.118 118.105 100.314 117.976L109.168 112.022C109.421 111.849 109.596 111.584 109.657 111.284C109.718 110.984 109.66 110.672 109.496 110.413L97.9752 92.5755H118.868C119.179 92.5745 119.477 92.4506 119.697 92.2306C119.917 92.0107 120.041 91.7128 120.042 91.4018V80.5731C120.041 80.2621 119.917 79.9641 119.697 79.7442C119.477 79.5243 119.179 79.4008 118.868 79.3998Z" fill="currentColor"/>
</svg>
